<?xml version="1.0" encoding="UTF-8" standalone="no"?>
<svg
   xmlns:dc="http://purl.org/dc/elements/1.1/"
   xmlns:cc="http://creativecommons.org/ns#"
   xmlns:rdf="http://www.w3.org/1999/02/22-rdf-syntax-ns#"
   xmlns:svg="http://www.w3.org/2000/svg"
   xmlns="http://www.w3.org/2000/svg"
   viewBox="0 0 1000 535.32453"
   height="535.32452"
   width="1000"
   xml:space="preserve"
   id="svg2"
   version="1.1"><metadata
     id="metadata8"><rdf:RDF><cc:Work
         rdf:about=""><dc:format>image/svg+xml</dc:format><dc:type
           rdf:resource="http://purl.org/dc/dcmitype/StillImage" /><dc:title></dc:title></cc:Work></rdf:RDF></metadata><defs
     id="defs6"><clipPath
       id="clipPath18"
       clipPathUnits="userSpaceOnUse"><path
         style="clip-rule:evenodd"
         id="path16"
         d="M 0,0.028 H 283.436 V 283.464 H 0 Z" /></clipPath></defs><g
     transform="matrix(1.3333333,0,0,-1.3333333,818.11048,809.51413)"
     id="g10"><g
       transform="matrix(4.4869428,0,0,-4.4869428,-625.21412,295.67668)"
       style="fill:#bf0041;fill-opacity:1;fill-rule:nonzero;stroke:none"
       id="logo"><path
         id="e"
         d="m 49.444636,-28.130638 q 0,4.032378 -1.056099,5.376504 -0.96009,1.344126 -3.936369,1.344126 H 21.025972 q -1.728162,0 -2.208207,0.384036 -0.384036,0.288027 -0.384036,1.632153 0,4.032379 2.592243,6.720631 2.592243,2.6882517 6.528612,2.6882517 4.032378,0 8.256774,-4.4164137 2.88027,-3.072288 6.336594,-3.072288 2.88027,0 4.608432,1.632153 1.824171,1.632153 1.824171,4.128387 0,5.5685218 -6.144576,9.5048909 -6.048567,3.8403601 -14.785386,3.8403601 -11.425072,0 -18.2417107,-6.9126481 -6.8166392,-6.9126479 -6.8166392,-18.4337289 0,-11.617089 6.7206302,-18.721755 6.8166387,-7.200675 17.7616657,-7.200675 10.176954,0 16.225521,5.856549 6.144576,5.856549 6.144576,15.649467 z m -30.530862,-4.80045 q 0,0.576054 0.288027,0.96009 0.288027,0.384036 2.016189,0.384036 h 10.753008 q 1.440135,0 1.728162,-0.288027 0.384036,-0.384036 0.384036,-1.248117 0,-2.496234 -2.208207,-4.320405 -2.208207,-1.92018 -5.184486,-1.92018 -3.84036,0 -6.240585,2.976279 -1.536144,1.92018 -1.536144,3.456324 z" /><path
         id="i"
         d="m 75.559083,-48.292528 q 2.688252,0 2.688252,3.744351 v 28.89871 q 0,4.896459 1.824171,4.896459 0.384036,0 1.344127,-0.192018 1.056099,-0.288027 1.728162,-0.288027 4.032378,0 4.032378,4.9924678 0,6.62462121 -5.664531,6.62462121 -0.960091,0 -5.376505,-0.48004501 -2.688252,-0.28802701 -6.144576,-0.28802701 -1.728162,0 -5.088477,0.38403601 -3.360315,0.38403601 -4.992468,0.38403601 -2.592243,0 -4.224396,-1.72816201 -1.632153,-1.8241711 -1.632153,-4.6084322 0,-5.4725128 4.608432,-5.4725128 0,0 2.496234,0.576054 0.384036,0.09601 0.672063,0.09601 1.728162,0 1.728162,-5.376504 V -31.68297 q 0,-5.472513 -1.632153,-5.472513 -0.288027,0 -1.728162,0.480045 -0.96009,0.192018 -1.536144,0.192018 -4.608432,0 -4.608432,-5.376504 0,-2.88027 1.632153,-4.608432 1.632153,-1.824171 4.320405,-1.824171 1.056099,0 3.072288,0.288027 3.360315,0.480045 5.376504,0.480045 1.632153,0 4.224396,-0.384036 2.592243,-0.384036 2.88027,-0.384037 z M 70.08657,-51.94087 q -3.552333,0 -6.144576,-2.592244 -2.592243,-2.592243 -2.592243,-6.144576 0,-3.648342 2.496234,-6.144576 2.592243,-2.592243 6.240585,-2.592243 3.648342,0 6.144576,2.592243 2.592243,2.496234 2.592243,6.144576 0,3.648342 -2.592243,6.240585 -2.496234,2.496235 -6.144576,2.496235 z" /><path
         id="l"
         d="m 109.54627,-64.614059 q 2.68825,0 2.68825,3.552333 v 45.412259 q 0,4.80045 1.92018,4.80045 0.76807,0 1.34412,-0.192018 0.57606,-0.192018 1.53615,-0.192018 4.22439,0 4.22439,4.9924678 0,6.62462121 -5.76054,6.62462121 -0.096,0 -7.29668,-0.57605402 -2.20821,-0.192018 -4.70444,-0.192018 -2.1122,0 -4.512424,0.28802701 -4.032378,0.48004501 -5.088477,0.48004501 -2.592243,0 -4.224396,-1.72816201 -1.632153,-1.8241711 -1.632153,-4.7044412 0,-5.3765038 4.704441,-5.3765038 0.576054,0 1.536144,0.384036 1.056099,0.288027 1.632153,0.288027 1.632153,0 1.632153,-5.376504 V -48.10051 q 0,-5.376504 -1.632153,-5.376504 -0.672063,0 -1.728162,0.384036 -0.576054,0.192018 -1.536144,0.192018 -4.608432,0 -4.608432,-5.280496 0,-2.976279 1.632153,-4.704441 1.632153,-1.728162 4.416414,-1.728162 0.768072,0 3.264306,0.288027 3.264307,0.384036 4.896457,0.384036 2.20821,0 3.84036,-0.384036 2.20821,-0.288027 3.45633,-0.288027 z" /><path
         id="/"
         d="m 153.51839,-21.794044 -3.07228,7.872739 -1.63216,3.9363687 -3.84036,10.84901732 -2.88027,8.73681928 q -2.49623,7.3926927 -3.93637,8.9288377 -1.34412,1.536144 -6.04856,1.536144 -7.29669,0 -7.29669,-2.880271 0,-1.632153 3.64834,-9.6969088 0.76808,-1.728162 3.26431,-7.5847112 3.84036,-9.1208553 4.89646,-11.809107 l 8.92884,-23.13817 4.99246,-14.209332 2.68826,-8.160766 q 1.63215,-5.088477 3.2643,-6.72063 1.72816,-1.632153 5.2805,-1.632153 7.96875,0 7.96875,3.264306 0,1.344126 -1.53615,4.80045 l -2.40022,5.376505 q -0.38404,0.96009 -3.45633,8.832828 -0.96009,2.304216 -4.41641,10.56099 -1.15211,2.784261 -4.41642,11.137044 z" /></g></g></svg>