<?xml version="1.0" encoding="UTF-8" standalone="no"?>
<svg
   xmlns:i="&amp;ns_ai;"
   xmlns:dc="http://purl.org/dc/elements/1.1/"
   xmlns:cc="http://creativecommons.org/ns#"
   xmlns:rdf="http://www.w3.org/1999/02/22-rdf-syntax-ns#"
   xmlns:svg="http://www.w3.org/2000/svg"
   xmlns="http://www.w3.org/2000/svg"
   id="svg71"
   xml:space="preserve"
   enable-background="new 0 0 850.39 566.93"
   viewBox="0 0 999.99992 666.66743"
   height="666.66742"
   width="999.99994"
   y="0px"
   x="0px"
   i:pageBounds="0 0 850.3896 -566.9297"
   i:rulerOrigin="0 566.9297"
   i:viewOrigin="0 0"
   version="1.1"><defs
     id="defs75" /><g
     transform="scale(1.1759255)"
     i:rgbTrio="#4F008000FFFF"
     i:dimmedPercent="50"
     i:layer="yes"
     id="Layer_1"><rect
       style="fill:#1c75bc"
       y="0"
       x="0"
       id="rect4"
       height="566.92999"
       width="850.39398"
       i:knockout="Off" /><g
       id="g58"><path
         style="fill:#ffffff"
         id="path6"
         d="m 450.369,250.434 v -39.832 c 0,-1.686 0.84,-2.529 2.523,-2.529 h 12.305 c 10.475,0 15.711,3.962 15.711,11.887 0,2.36 -0.662,4.415 -1.986,6.164 -1.326,1.75 -3.125,3.046 -5.396,3.889 v 0.253 c 0.799,0.295 1.619,1.001 2.461,2.118 0.842,1.117 1.535,2.35 2.082,3.698 l 5.553,13.91 c 0.211,0.548 0.316,0.948 0.316,1.201 0,0.844 -1.262,1.264 -3.785,1.264 h -2.588 c -2.104,0 -3.324,-0.442 -3.66,-1.327 L 468.92,238.8 c -0.715,-1.391 -1.482,-2.371 -2.303,-2.94 -0.82,-0.568 -2.178,-0.854 -4.07,-0.854 h -2.461 v 15.428 c 0,1.35 -1.262,2.022 -3.785,2.022 h -2.146 c -2.524,0 -3.786,-0.673 -3.786,-2.022 z m 9.717,-23.836 h 5.994 c 1.305,0 2.439,-0.527 3.408,-1.581 0.967,-1.053 1.451,-2.328 1.451,-3.825 0,-1.495 -0.475,-2.676 -1.42,-3.541 -0.947,-0.863 -2.24,-1.296 -3.881,-1.296 h -5.553 v 10.243 z"
         i:knockout="Off" /><path
         style="fill:#ffffff"
         id="path8"
         d="m 491.225,248.379 c -2.713,-2.972 -4.07,-7.261 -4.07,-12.867 0,-5.605 1.357,-9.8 4.07,-12.581 2.713,-2.782 6.436,-4.174 11.168,-4.174 4.732,0 8.203,1.518 10.412,4.553 2.207,3.035 3.312,6.955 3.312,11.76 0,0.506 -0.432,1.255 -1.295,2.245 -0.861,0.99 -1.504,1.485 -1.924,1.485 h -16.09 c 0.211,2.402 0.924,4.109 2.145,5.121 1.221,1.012 2.777,1.518 4.67,1.518 1.893,0 3.701,-0.326 5.426,-0.98 1.725,-0.652 2.609,-0.979 2.65,-0.979 0.631,0 1.336,0.622 2.115,1.865 0.777,1.244 1.166,2.224 1.166,2.939 0,1.392 -1.314,2.498 -3.943,3.319 -2.629,0.822 -5.102,1.233 -7.414,1.233 -5.553,0 -9.685,-1.486 -12.398,-4.457 z m 15.806,-15.839 c 0,-1.938 -0.379,-3.487 -1.137,-4.646 -0.758,-1.159 -1.893,-1.739 -3.406,-1.739 -3.115,0 -5.008,2.129 -5.68,6.386 h 10.223 z"
         i:knockout="Off" /><path
         style="fill:#ffffff"
         id="path10"
         d="m 520.469,248.347 c 0,-0.674 0.4,-1.622 1.199,-2.845 0.799,-1.223 1.514,-1.834 2.145,-1.834 0.084,0 0.842,0.296 2.273,0.886 1.428,0.591 2.732,0.885 3.912,0.885 2.564,0 3.848,-0.948 3.848,-2.845 0,-1.012 -0.432,-1.823 -1.293,-2.435 -0.863,-0.61 -1.914,-1.127 -3.154,-1.549 -1.242,-0.421 -2.482,-0.927 -3.723,-1.518 -1.242,-0.59 -2.295,-1.559 -3.156,-2.908 -0.861,-1.349 -1.293,-3.076 -1.293,-5.185 0,-3.161 1.041,-5.659 3.123,-7.492 2.082,-1.834 4.91,-2.751 8.486,-2.751 1.682,0 3.281,0.169 4.797,0.506 3.027,0.675 4.543,1.834 4.543,3.478 0,0.549 -0.316,1.466 -0.947,2.751 -0.631,1.286 -1.221,1.928 -1.768,1.928 -0.041,0 -0.662,-0.221 -1.861,-0.664 -1.197,-0.442 -2.365,-0.663 -3.502,-0.663 -2.271,0 -3.406,0.759 -3.406,2.275 0,0.844 0.43,1.528 1.293,2.056 0.861,0.527 1.914,1.011 3.154,1.454 1.242,0.442 2.482,0.99 3.725,1.644 1.24,0.654 2.291,1.687 3.154,3.098 0.861,1.413 1.293,3.151 1.293,5.217 0,3.33 -1.084,5.996 -3.25,7.998 -2.166,2.002 -4.879,3.003 -8.139,3.003 -3.26,0 -5.984,-0.391 -8.172,-1.17 -2.188,-0.779 -3.281,-1.887 -3.281,-3.32 z"
         i:knockout="Off" /><path
         style="fill:#ffffff"
         id="path12"
         d="m 546.529,248.347 c 0,-0.674 0.398,-1.622 1.199,-2.845 0.797,-1.223 1.514,-1.834 2.145,-1.834 0.084,0 0.842,0.296 2.271,0.886 1.43,0.591 2.734,0.885 3.912,0.885 2.564,0 3.85,-0.948 3.85,-2.845 0,-1.012 -0.432,-1.823 -1.295,-2.435 -0.861,-0.61 -1.914,-1.127 -3.154,-1.549 -1.24,-0.421 -2.482,-0.927 -3.723,-1.518 -1.24,-0.59 -2.293,-1.559 -3.154,-2.908 -0.863,-1.349 -1.295,-3.076 -1.295,-5.185 0,-3.161 1.041,-5.659 3.125,-7.492 2.082,-1.834 4.91,-2.751 8.486,-2.751 1.682,0 3.281,0.169 4.795,0.506 3.029,0.675 4.543,1.834 4.543,3.478 0,0.549 -0.314,1.466 -0.945,2.751 -0.633,1.286 -1.221,1.928 -1.768,1.928 -0.043,0 -0.662,-0.221 -1.861,-0.664 -1.199,-0.442 -2.367,-0.663 -3.502,-0.663 -2.271,0 -3.408,0.759 -3.408,2.275 0,0.844 0.432,1.528 1.295,2.056 0.861,0.527 1.912,1.011 3.154,1.454 1.24,0.442 2.482,0.99 3.723,1.644 1.24,0.654 2.293,1.687 3.154,3.098 0.863,1.413 1.295,3.151 1.295,5.217 0,3.33 -1.084,5.996 -3.25,7.998 -2.168,2.002 -4.881,3.003 -8.141,3.003 -3.26,0 -5.984,-0.391 -8.17,-1.17 -2.187,-0.78 -3.281,-1.887 -3.281,-3.32 z"
         i:knockout="Off" /><path
         style="fill:#ffffff"
         id="path14"
         d="m 577.195,248.441 c -2.609,-2.929 -3.912,-7.154 -3.912,-12.677 0,-5.521 1.303,-9.736 3.912,-12.645 2.607,-2.908 6.414,-4.363 11.42,-4.363 5.006,0 8.803,1.455 11.389,4.363 2.588,2.908 3.881,7.123 3.881,12.645 0,5.522 -1.293,9.748 -3.881,12.677 -2.586,2.931 -6.383,4.395 -11.389,4.395 -5.006,0 -8.812,-1.464 -11.42,-4.395 z m 5.553,-12.644 c 0,6.428 1.945,9.642 5.836,9.642 3.891,0 5.836,-3.214 5.836,-9.642 0,-6.428 -1.945,-9.643 -5.836,-9.643 -3.891,0 -5.836,3.215 -5.836,9.643 z"
         i:knockout="Off" /><path
         style="fill:#ffffff"
         id="path16"
         d="M 610.258,242.594 V 221.16 c 0,-1.349 1.262,-2.023 3.785,-2.023 h 1.768 c 2.523,0 3.785,0.675 3.785,2.023 v 20.042 c 0,2.614 1.262,3.92 3.787,3.92 2.102,0 3.785,-1.222 5.047,-3.667 V 221.16 c 0,-1.349 1.262,-2.023 3.785,-2.023 h 1.768 c 2.523,0 3.785,0.675 3.785,2.023 v 20.042 c 0,2.614 0.127,4.806 0.379,6.576 l 0.379,2.592 c 0,0.675 -0.852,1.181 -2.555,1.518 -1.705,0.338 -2.977,0.506 -3.818,0.506 -0.841,0 -1.398,-0.084 -1.672,-0.253 -0.273,-0.168 -0.494,-0.453 -0.662,-0.854 -0.168,-0.401 -0.295,-0.717 -0.379,-0.948 -0.084,-0.231 -0.18,-0.643 -0.283,-1.233 -0.105,-0.59 -0.18,-0.948 -0.221,-1.075 -1.01,1.35 -2.346,2.488 -4.008,3.415 -1.662,0.926 -3.461,1.391 -5.395,1.391 -3.154,0 -5.49,-0.832 -7.004,-2.497 -1.514,-1.665 -2.271,-4.247 -2.271,-7.746 z"
         i:knockout="Off" /><path
         style="fill:#ffffff"
         id="path18"
         d="m 645.592,250.434 v -20.043 c 0,-3.161 -0.127,-5.374 -0.379,-6.639 -0.252,-1.265 -0.379,-2.023 -0.379,-2.276 0,-0.673 0.852,-1.179 2.555,-1.517 1.705,-0.337 2.977,-0.506 3.818,-0.506 0.841,0 1.398,0.085 1.672,0.253 0.273,0.169 0.494,0.433 0.662,0.79 0.168,0.358 0.295,0.654 0.379,0.885 0.084,0.232 0.18,0.623 0.285,1.17 0.104,0.548 0.178,0.885 0.221,1.012 1.766,-3.203 4.059,-4.806 6.877,-4.806 1.346,0 2.281,0.349 2.809,1.044 0.525,0.695 0.789,1.485 0.789,2.371 0,0.885 -0.189,1.991 -0.568,3.319 -0.379,1.327 -0.842,1.991 -1.389,1.991 -0.252,0 -0.693,-0.084 -1.324,-0.253 -0.631,-0.168 -1.18,-0.253 -1.641,-0.253 -2.105,0 -3.787,1.054 -5.049,3.161 v 20.296 c 0,1.35 -1.262,2.022 -3.785,2.022 h -1.768 c -2.523,10e-4 -3.785,-0.672 -3.785,-2.021 z"
         i:knockout="Off" /><path
         style="fill:#ffffff"
         id="path20"
         d="m 671.336,248.694 c -2.609,-2.76 -3.912,-6.996 -3.912,-12.708 0,-5.711 1.314,-10.011 3.943,-12.898 2.629,-2.887 6.719,-4.331 12.271,-4.331 2.566,0 4.953,0.391 7.162,1.17 2.209,0.78 3.312,1.845 3.312,3.193 0,0.632 -0.432,1.603 -1.293,2.908 -0.863,1.307 -1.547,1.96 -2.051,1.96 -0.168,0 -0.547,-0.147 -1.137,-0.442 -1.852,-0.927 -3.848,-1.392 -5.994,-1.392 -2.145,0 -3.785,0.781 -4.922,2.34 -1.135,1.56 -1.703,3.983 -1.703,7.271 0,3.288 0.537,5.723 1.609,7.303 1.072,1.581 2.713,2.371 4.922,2.371 2.209,0 4.344,-0.484 6.404,-1.454 0.672,-0.253 1.051,-0.38 1.137,-0.38 0.631,0 1.334,0.623 2.113,1.865 0.777,1.244 1.166,2.245 1.166,3.004 0,0.759 -0.463,1.454 -1.387,2.086 -0.926,0.633 -2.041,1.097 -3.346,1.392 -2.691,0.589 -4.795,0.885 -6.309,0.885 -5.382,-10e-4 -9.378,-1.381 -11.985,-4.143 z"
         i:knockout="Off" /><path
         style="fill:#ffffff"
         id="path22"
         d="m 702.096,248.379 c -2.713,-2.972 -4.07,-7.261 -4.07,-12.867 0,-5.605 1.357,-9.8 4.07,-12.581 2.713,-2.782 6.436,-4.174 11.168,-4.174 4.732,0 8.203,1.518 10.412,4.553 2.207,3.035 3.312,6.955 3.312,11.76 0,0.506 -0.432,1.255 -1.295,2.245 -0.861,0.99 -1.504,1.485 -1.924,1.485 h -16.09 c 0.211,2.402 0.924,4.109 2.145,5.121 1.221,1.012 2.777,1.518 4.67,1.518 1.893,0 3.701,-0.326 5.426,-0.98 1.725,-0.652 2.609,-0.979 2.65,-0.979 0.631,0 1.336,0.622 2.115,1.865 0.777,1.244 1.166,2.224 1.166,2.939 0,1.392 -1.314,2.498 -3.943,3.319 -2.629,0.822 -5.102,1.233 -7.414,1.233 -5.553,0 -9.685,-1.486 -12.398,-4.457 z m 15.806,-15.839 c 0,-1.938 -0.379,-3.487 -1.137,-4.646 -0.758,-1.159 -1.893,-1.739 -3.406,-1.739 -3.115,0 -5.008,2.129 -5.68,6.386 h 10.223 z"
         i:knockout="Off" /><path
         style="fill:#ffffff"
         id="path24"
         d="m 731.34,248.347 c 0,-0.674 0.4,-1.622 1.199,-2.845 0.799,-1.223 1.514,-1.834 2.145,-1.834 0.084,0 0.842,0.296 2.273,0.886 1.428,0.591 2.732,0.885 3.912,0.885 2.564,0 3.848,-0.948 3.848,-2.845 0,-1.012 -0.432,-1.823 -1.293,-2.435 -0.863,-0.61 -1.914,-1.127 -3.154,-1.549 -1.242,-0.421 -2.482,-0.927 -3.723,-1.518 -1.242,-0.59 -2.295,-1.559 -3.156,-2.908 -0.861,-1.349 -1.293,-3.076 -1.293,-5.185 0,-3.161 1.041,-5.659 3.123,-7.492 2.082,-1.834 4.91,-2.751 8.486,-2.751 1.682,0 3.281,0.169 4.797,0.506 3.027,0.675 4.543,1.834 4.543,3.478 0,0.549 -0.316,1.466 -0.947,2.751 -0.631,1.286 -1.221,1.928 -1.768,1.928 -0.041,0 -0.662,-0.221 -1.861,-0.664 -1.197,-0.442 -2.365,-0.663 -3.502,-0.663 -2.271,0 -3.406,0.759 -3.406,2.275 0,0.844 0.43,1.528 1.293,2.056 0.861,0.527 1.914,1.011 3.154,1.454 1.242,0.442 2.482,0.99 3.725,1.644 1.24,0.654 2.291,1.687 3.154,3.098 0.861,1.413 1.293,3.151 1.293,5.217 0,3.33 -1.084,5.996 -3.25,7.998 -2.166,2.002 -4.879,3.003 -8.139,3.003 -3.26,0 -5.984,-0.391 -8.172,-1.17 -2.188,-0.779 -3.281,-1.887 -3.281,-3.32 z"
         i:knockout="Off" /><path
         style="fill:#ffffff"
         id="path26"
         d="m 450.369,331.765 v -39.199 c 0,-1.686 0.84,-2.529 2.523,-2.529 h 23.094 c 1.262,0 1.893,1.054 1.893,3.161 v 1.96 c 0,2.108 -0.631,3.161 -1.893,3.161 h -15.9 v 9.168 h 14.197 c 1.262,0 1.893,1.054 1.893,3.161 v 1.96 c 0,2.108 -0.631,3.161 -1.893,3.161 h -14.197 v 10.243 h 15.965 c 1.262,0 1.893,1.054 1.893,3.161 v 1.96 c 0,2.108 -0.631,3.161 -1.893,3.161 h -23.158 c -1.684,0 -2.524,-0.843 -2.524,-2.529 z M 461.6,285.294 c -1.303,0 -1.955,-0.316 -1.955,-0.948 0,-0.421 0.305,-1.096 0.914,-2.023 0.609,-0.927 1.168,-1.833 1.674,-2.719 0.504,-0.885 1.008,-1.77 1.514,-2.655 0.631,-1.138 2.312,-1.707 5.047,-1.707 2.735,0 4.102,0.296 4.102,0.885 0,0.253 -0.125,0.549 -0.379,0.886 -0.252,0.338 -0.756,0.896 -1.514,1.676 -0.758,0.78 -1.283,1.327 -1.578,1.644 -0.293,0.316 -0.736,0.801 -1.324,1.454 -0.59,0.654 -1.178,1.296 -1.768,1.929 -0.968,1.052 -2.546,1.578 -4.733,1.578 z"
         i:knockout="Off" /><path
         style="fill:#ffffff"
         id="path28"
         d="m 494.916,334.8 c -3.492,0 -6.332,-1.507 -8.518,-4.521 -2.189,-3.014 -3.281,-7.165 -3.281,-12.456 0,-5.289 1.166,-9.462 3.502,-12.519 2.334,-3.056 5.604,-4.584 9.811,-4.584 2.482,0 4.627,0.654 6.438,1.961 v -14.036 c 0,-1.349 1.262,-2.023 3.785,-2.023 h 1.766 c 2.525,0 3.787,0.675 3.787,2.023 v 34.521 c 0,2.614 0.125,4.806 0.379,6.576 l 0.379,2.592 c 0,0.675 -0.854,1.181 -2.557,1.518 -1.703,0.338 -2.977,0.506 -3.816,0.506 -0.842,0 -1.4,-0.084 -1.674,-0.253 -0.273,-0.168 -0.494,-0.442 -0.662,-0.822 -0.168,-0.379 -0.295,-0.695 -0.379,-0.948 -0.084,-0.253 -0.178,-0.664 -0.283,-1.233 -0.105,-0.568 -0.18,-0.916 -0.221,-1.043 -0.758,1.392 -1.883,2.529 -3.375,3.414 -1.495,0.884 -3.188,1.327 -5.081,1.327 z m 2.775,-7.651 c 2.02,0 3.744,-1.243 5.176,-3.73 V 309.32 c -1.432,-0.801 -2.904,-1.202 -4.418,-1.202 -3.912,0 -5.867,3.173 -5.867,9.516 0,6.345 1.703,9.515 5.109,9.515 z"
         i:knockout="Off" /><path
         style="fill:#ffffff"
         id="path30"
         d="m 519.838,324.558 v -21.434 c 0,-1.349 1.262,-2.023 3.787,-2.023 h 1.766 c 2.525,0 3.787,0.675 3.787,2.023 v 20.042 c 0,2.614 1.262,3.92 3.785,3.92 2.104,0 3.785,-1.222 5.049,-3.667 v -20.295 c 0,-1.349 1.262,-2.023 3.785,-2.023 h 1.768 c 2.523,0 3.785,0.675 3.785,2.023 v 20.042 c 0,2.614 0.127,4.806 0.379,6.576 l 0.379,2.592 c 0,0.675 -0.854,1.181 -2.557,1.518 -1.703,0.338 -2.977,0.506 -3.816,0.506 -0.842,0 -1.4,-0.084 -1.672,-0.253 -0.275,-0.168 -0.496,-0.453 -0.664,-0.854 -0.168,-0.401 -0.295,-0.717 -0.379,-0.948 -0.084,-0.231 -0.178,-0.643 -0.283,-1.233 -0.105,-0.59 -0.18,-0.948 -0.221,-1.075 -1.01,1.35 -2.346,2.488 -4.006,3.415 -1.662,0.926 -3.461,1.391 -5.396,1.391 -3.154,0 -5.488,-0.832 -7.004,-2.497 -1.514,-1.666 -2.272,-4.247 -2.272,-7.746 z"
         i:knockout="Off" /><path
         style="fill:#ffffff"
         id="path32"
         d="m 557.824,330.658 c -2.609,-2.76 -3.912,-6.996 -3.912,-12.708 0,-5.711 1.314,-10.011 3.943,-12.898 2.629,-2.887 6.719,-4.331 12.271,-4.331 2.566,0 4.953,0.391 7.162,1.17 2.209,0.78 3.312,1.845 3.312,3.193 0,0.632 -0.432,1.603 -1.293,2.908 -0.863,1.307 -1.547,1.96 -2.051,1.96 -0.168,0 -0.547,-0.147 -1.137,-0.442 -1.852,-0.927 -3.848,-1.392 -5.994,-1.392 -2.145,0 -3.785,0.781 -4.922,2.34 -1.135,1.56 -1.703,3.983 -1.703,7.271 0,3.288 0.537,5.723 1.609,7.303 1.072,1.581 2.713,2.371 4.922,2.371 2.209,0 4.344,-0.484 6.404,-1.454 0.672,-0.253 1.051,-0.38 1.137,-0.38 0.631,0 1.334,0.623 2.113,1.865 0.777,1.244 1.166,2.245 1.166,3.004 0,0.759 -0.463,1.454 -1.387,2.086 -0.926,0.633 -2.041,1.097 -3.346,1.392 -2.691,0.589 -4.795,0.885 -6.309,0.885 -5.381,-10e-4 -9.377,-1.381 -11.985,-4.143 z"
         i:knockout="Off" /><path
         style="fill:#ffffff"
         id="path34"
         d="m 584.514,325.568 c 0,-1.179 0.104,-2.254 0.314,-3.224 0.21,-0.97 0.695,-2.013 1.451,-3.13 0.758,-1.116 1.768,-2.033 3.029,-2.751 2.986,-1.77 7.424,-2.655 13.314,-2.655 v -2.086 c 0,-2.402 -1.641,-3.604 -4.922,-3.604 -2.314,0 -4.566,0.506 -6.752,1.518 -0.758,0.338 -1.199,0.506 -1.326,0.506 -0.631,0 -1.336,-0.652 -2.113,-1.96 -0.779,-1.306 -1.166,-2.339 -1.166,-3.098 0,-1.139 1.166,-2.15 3.502,-3.035 2.334,-0.885 5.184,-1.328 8.549,-1.328 9.043,0 13.566,3.521 13.566,10.56 v 11.886 c 0,2.614 0.127,4.806 0.379,6.576 l 0.379,2.592 c 0,0.675 -0.854,1.181 -2.557,1.518 -1.703,0.338 -2.977,0.506 -3.816,0.506 -0.842,0 -1.4,-0.084 -1.672,-0.253 -0.275,-0.168 -0.496,-0.453 -0.664,-0.854 -0.168,-0.401 -0.295,-0.717 -0.379,-0.948 -0.084,-0.231 -0.178,-0.643 -0.283,-1.233 -0.105,-0.59 -0.18,-0.948 -0.221,-1.075 -0.758,1.35 -2.061,2.488 -3.912,3.415 -1.852,0.926 -3.639,1.391 -5.363,1.391 -3.24,0 -5.605,-0.843 -7.1,-2.529 -1.491,-1.688 -2.237,-3.922 -2.237,-6.705 z m 9.275,-0.948 c 0,0.844 0.271,1.518 0.82,2.023 0.545,0.506 1.365,0.759 2.461,0.759 1.092,0 2.166,-0.379 3.217,-1.138 1.051,-0.759 1.83,-1.707 2.336,-2.846 v -3.478 c -5.891,10e-4 -8.834,1.562 -8.834,4.68 z"
         i:knockout="Off" /><path
         style="fill:#ffffff"
         id="path36"
         d="m 632.721,327.402 1.703,-0.253 c 0.547,0 1.01,0.622 1.389,1.865 0.379,1.244 0.568,2.14 0.568,2.688 0,2.065 -2.02,3.098 -6.059,3.098 -6.143,0 -9.213,-3.414 -9.213,-10.242 v -15.934 h -1.01 c -1.262,0 -1.893,-1.053 -1.893,-3.161 v -1.074 c 0,-2.107 0.631,-3.162 1.893,-3.162 h 1.01 l 0.82,-6.006 c 0.211,-1.349 1.346,-2.023 3.408,-2.023 h 1.955 c 2.104,0 3.156,0.675 3.156,2.023 v 6.006 h 3.092 c 1.262,0 1.893,1.055 1.893,3.162 v 1.074 c 0,2.108 -0.631,3.161 -1.893,3.161 h -3.092 v 16.06 c 10e-4,1.812 0.757,2.718 2.273,2.718 z"
         i:knockout="Off" /><path
         style="fill:#ffffff"
         id="path38"
         d="m 645.34,295.79 c -2.523,0 -3.785,-0.674 -3.785,-2.023 v -5.121 c 0,-1.349 1.262,-2.023 3.785,-2.023 h 1.768 c 2.523,0 3.785,0.675 3.785,2.023 v 5.121 c 0,1.35 -1.262,2.023 -3.785,2.023 z m -3.785,36.607 v -29.273 c 0,-1.349 1.262,-2.023 3.785,-2.023 h 1.768 c 2.523,0 3.785,0.675 3.785,2.023 v 29.273 c 0,1.35 -1.262,2.022 -3.785,2.022 h -1.768 c -2.524,0.001 -3.785,-0.672 -3.785,-2.022 z"
         i:knockout="Off" /><path
         style="fill:#ffffff"
         id="path40"
         d="m 654.994,302.491 c 0,-0.927 1.283,-1.391 3.85,-1.391 h 2.082 c 2.061,0 3.238,0.442 3.533,1.328 l 3.723,11.696 c 0.084,0.338 0.672,2.888 1.768,7.65 h 0.252 c 0.756,-3.709 1.346,-6.26 1.766,-7.65 l 3.723,-11.696 c 0.295,-0.886 1.473,-1.328 3.535,-1.328 h 1.576 c 2.523,0 3.787,0.464 3.787,1.391 0,0.296 -0.064,0.675 -0.189,1.139 l -10.033,29.463 c -0.295,0.885 -1.473,1.327 -3.533,1.327 h -2.02 c -2.062,0 -3.24,-0.442 -3.533,-1.327 L 655.248,303.63 c -0.17,-0.59 -0.254,-0.97 -0.254,-1.139 z"
         i:knockout="Off" /><path
         style="fill:#ffffff"
         id="path42"
         d="m 691.873,330.343 c -2.713,-2.972 -4.068,-7.261 -4.068,-12.867 0,-5.605 1.355,-9.8 4.068,-12.581 2.715,-2.782 6.438,-4.174 11.17,-4.174 4.732,0 8.201,1.518 10.41,4.553 2.209,3.035 3.312,6.955 3.312,11.76 0,0.506 -0.432,1.255 -1.293,2.245 -0.863,0.99 -1.504,1.485 -1.924,1.485 h -16.09 c 0.209,2.402 0.924,4.109 2.145,5.121 1.219,1.012 2.775,1.518 4.67,1.518 1.893,0 3.701,-0.326 5.426,-0.98 1.725,-0.652 2.607,-0.979 2.65,-0.979 0.631,0 1.334,0.622 2.113,1.865 0.777,1.244 1.168,2.224 1.168,2.939 0,1.392 -1.316,2.498 -3.943,3.319 -2.631,0.822 -5.102,1.233 -7.414,1.233 -5.552,0 -9.685,-1.487 -12.4,-4.457 z m 15.807,-15.839 c 0,-1.938 -0.379,-3.487 -1.135,-4.646 -0.758,-1.159 -1.895,-1.739 -3.408,-1.739 -3.113,0 -5.006,2.129 -5.678,6.386 h 10.221 z"
         i:knockout="Off" /><path
         style="fill:#ffffff"
         id="path44"
         d="m 721.119,330.311 c 0,-0.674 0.4,-1.622 1.199,-2.845 0.799,-1.223 1.514,-1.834 2.145,-1.834 0.084,0 0.842,0.296 2.273,0.886 1.428,0.591 2.732,0.885 3.912,0.885 2.564,0 3.848,-0.948 3.848,-2.845 0,-1.012 -0.432,-1.823 -1.293,-2.435 -0.863,-0.61 -1.914,-1.127 -3.154,-1.549 -1.242,-0.421 -2.482,-0.927 -3.723,-1.518 -1.242,-0.59 -2.295,-1.559 -3.156,-2.908 -0.861,-1.349 -1.293,-3.076 -1.293,-5.185 0,-3.161 1.041,-5.659 3.123,-7.492 2.082,-1.834 4.91,-2.751 8.486,-2.751 1.682,0 3.281,0.169 4.797,0.506 3.027,0.675 4.543,1.834 4.543,3.478 0,0.549 -0.316,1.466 -0.947,2.751 -0.631,1.286 -1.221,1.928 -1.768,1.928 -0.041,0 -0.662,-0.221 -1.861,-0.664 -1.197,-0.442 -2.365,-0.663 -3.502,-0.663 -2.271,0 -3.406,0.759 -3.406,2.275 0,0.844 0.43,1.528 1.293,2.056 0.861,0.527 1.914,1.011 3.154,1.454 1.242,0.442 2.482,0.99 3.725,1.644 1.24,0.654 2.291,1.687 3.154,3.098 0.861,1.413 1.293,3.151 1.293,5.217 0,3.33 -1.084,5.996 -3.25,7.998 -2.166,2.002 -4.879,3.003 -8.139,3.003 -3.26,0 -5.984,-0.391 -8.172,-1.17 -2.188,-0.779 -3.281,-1.887 -3.281,-3.32 z"
         i:knockout="Off" /><path
         style="fill:#ffffff"
         id="path46"
         d="m 450.369,413.729 v -39.832 c 0,-1.349 1.262,-2.023 3.785,-2.023 h 2.146 c 2.523,0 3.785,0.675 3.785,2.023 v 34.079 h 14.07 c 1.264,0 1.895,1.054 1.895,3.161 v 1.96 c 0,2.108 -0.631,3.161 -1.895,3.161 h -21.264 c -1.682,0 -2.522,-0.843 -2.522,-2.529 z"
         i:knockout="Off" /><path
         style="fill:#ffffff"
         id="path48"
         d="m 484.062,377.754 c -2.523,0 -3.785,-0.674 -3.785,-2.023 v -5.121 c 0,-1.349 1.262,-2.023 3.785,-2.023 h 1.768 c 2.523,0 3.785,0.675 3.785,2.023 v 5.121 c 0,1.35 -1.262,2.023 -3.785,2.023 z m -3.785,36.607 v -29.273 c 0,-1.349 1.262,-2.023 3.785,-2.023 h 1.768 c 2.523,0 3.785,0.675 3.785,2.023 v 29.273 c 0,1.35 -1.262,2.022 -3.785,2.022 h -1.768 c -2.523,0.001 -3.785,-0.672 -3.785,-2.022 z"
         i:knockout="Off" /><path
         style="fill:#ffffff"
         id="path50"
         d="m 497.439,414.361 v -43.752 c 0,-1.349 1.264,-2.023 3.787,-2.023 h 1.766 c 2.525,0 3.787,0.675 3.787,2.023 v 14.036 c 1.809,-1.307 3.953,-1.961 6.436,-1.961 4.207,0 7.477,1.528 9.812,4.584 2.334,3.057 3.502,7.229 3.502,12.519 0,5.291 -1.096,9.442 -3.281,12.456 -2.188,3.014 -5.027,4.521 -8.52,4.521 -1.893,0 -3.586,-0.442 -5.078,-1.328 -1.494,-0.885 -2.619,-2.022 -3.377,-3.414 l -0.631,2.719 c -0.252,1.097 -1.473,1.644 -3.658,1.644 h -0.758 c -2.523,-10e-4 -3.787,-0.674 -3.787,-2.024 z m 14.514,-5.248 c 3.406,0 5.111,-3.171 5.111,-9.516 0,-6.343 -1.957,-9.516 -5.869,-9.516 -1.514,0 -2.986,0.401 -4.416,1.202 v 14.099 c 1.43,2.488 3.155,3.731 5.174,3.731 z"
         i:knockout="Off" /><path
         style="fill:#ffffff"
         id="path52"
         d="m 533.09,414.361 v -20.043 c 0,-3.161 -0.127,-5.374 -0.379,-6.639 -0.252,-1.265 -0.379,-2.023 -0.379,-2.276 0,-0.673 0.852,-1.179 2.555,-1.517 1.705,-0.337 2.977,-0.506 3.818,-0.506 0.841,0 1.398,0.085 1.672,0.253 0.273,0.169 0.494,0.433 0.662,0.79 0.168,0.358 0.295,0.654 0.379,0.885 0.084,0.232 0.18,0.623 0.285,1.17 0.104,0.548 0.178,0.885 0.221,1.012 1.766,-3.203 4.059,-4.806 6.877,-4.806 1.346,0 2.281,0.349 2.809,1.044 0.525,0.695 0.789,1.485 0.789,2.371 0,0.885 -0.189,1.991 -0.568,3.319 -0.379,1.327 -0.842,1.991 -1.389,1.991 -0.252,0 -0.693,-0.084 -1.324,-0.253 -0.631,-0.168 -1.18,-0.253 -1.641,-0.253 -2.105,0 -3.787,1.054 -5.049,3.161 v 20.296 c 0,1.35 -1.262,2.022 -3.785,2.022 h -1.768 c -2.523,0.002 -3.785,-0.671 -3.785,-2.021 z"
         i:knockout="Off" /><path
         style="fill:#ffffff"
         id="path54"
         d="m 558.99,412.307 c -2.713,-2.972 -4.068,-7.261 -4.068,-12.867 0,-5.605 1.355,-9.8 4.068,-12.581 2.715,-2.782 6.438,-4.174 11.17,-4.174 4.732,0 8.201,1.518 10.41,4.553 2.209,3.035 3.312,6.955 3.312,11.76 0,0.506 -0.432,1.255 -1.293,2.245 -0.863,0.99 -1.504,1.485 -1.924,1.485 h -16.09 c 0.209,2.402 0.924,4.109 2.145,5.121 1.219,1.012 2.775,1.518 4.67,1.518 1.893,0 3.701,-0.326 5.426,-0.98 1.725,-0.652 2.607,-0.979 2.65,-0.979 0.631,0 1.334,0.622 2.113,1.865 0.777,1.244 1.168,2.224 1.168,2.939 0,1.392 -1.316,2.498 -3.943,3.319 -2.631,0.822 -5.102,1.233 -7.414,1.233 -5.552,0 -9.685,-1.487 -12.4,-4.457 z m 15.807,-15.839 c 0,-1.938 -0.379,-3.487 -1.135,-4.646 -0.758,-1.159 -1.895,-1.739 -3.408,-1.739 -3.113,0 -5.006,2.129 -5.678,6.386 h 10.221 z"
         i:knockout="Off" /><path
         style="fill:#ffffff"
         id="path56"
         d="m 588.236,412.274 c 0,-0.674 0.4,-1.622 1.199,-2.845 0.799,-1.223 1.514,-1.834 2.145,-1.834 0.084,0 0.842,0.296 2.273,0.886 1.428,0.591 2.732,0.885 3.912,0.885 2.564,0 3.848,-0.948 3.848,-2.845 0,-1.012 -0.432,-1.823 -1.293,-2.435 -0.863,-0.61 -1.914,-1.127 -3.154,-1.549 -1.242,-0.421 -2.482,-0.927 -3.723,-1.518 -1.242,-0.59 -2.295,-1.559 -3.156,-2.908 -0.861,-1.349 -1.293,-3.076 -1.293,-5.185 0,-3.161 1.041,-5.659 3.123,-7.492 2.082,-1.834 4.91,-2.751 8.486,-2.751 1.682,0 3.281,0.169 4.797,0.506 3.027,0.675 4.543,1.834 4.543,3.478 0,0.549 -0.316,1.466 -0.947,2.751 -0.631,1.286 -1.221,1.928 -1.768,1.928 -0.041,0 -0.662,-0.221 -1.861,-0.664 -1.197,-0.442 -2.365,-0.663 -3.502,-0.663 -2.271,0 -3.406,0.759 -3.406,2.275 0,0.844 0.43,1.528 1.293,2.056 0.861,0.527 1.914,1.011 3.154,1.454 1.242,0.442 2.482,0.99 3.725,1.644 1.24,0.654 2.291,1.687 3.154,3.098 0.861,1.413 1.293,3.151 1.293,5.217 0,3.33 -1.084,5.996 -3.25,7.998 -2.166,2.002 -4.879,3.003 -8.139,3.003 -3.26,0 -5.984,-0.391 -8.172,-1.17 -2.188,-0.779 -3.281,-1.886 -3.281,-3.32 z"
         i:knockout="Off" /></g><g
       id="g68"><g
         id="g62"
         i:knockout="Off"><path
           style="clip-rule:evenodd;fill:#ffffff;fill-rule:evenodd"
           id="path60"
           d="m 766.553,486.76 c -13.37,-4.949 -27.399,-9.173 -41.586,-11.161 -59.626,-8.36 -119.26,-16.726 -178.897,-25.087 -29.515,-4.141 -59.038,-8.279 -88.554,-12.413 -6.86,-0.965 -10.466,-1.615 -16.229,2.852 -8.59,6.65 -17.177,13.304 -25.766,19.956 -2.698,-2.16 -5.396,-4.321 -8.095,-6.48 -7.404,-5.931 -19.497,-8.513 -28.391,-11.172 -8.511,-2.552 -20.736,-7.541 -29.908,-6.277 -21.11,2.922 -42.21,5.846 -63.312,8.774 -69.18,9.581 -138.362,19.157 -207.535,28.742 -2.367,0.325 -4.731,0.654 -7.085,0.982 -3.621,0.5 17.784,9.649 19.767,10.31 10.522,3.496 26.303,10.395 37.771,8.804 82.342,-11.404 164.693,-22.81 247.042,-34.212 7.011,5.61 14.021,11.221 21.032,16.834 7.356,5.883 19.467,8.449 28.29,11.088 5.366,1.603 25.703,9.96 31.15,5.745 16.184,-12.539 32.365,-25.068 48.545,-37.604 90.387,12.672 180.769,25.352 271.157,38.023 12.294,1.724 -7.632,-7.051 -9.396,-7.704 z"
           i:knockout="Off" /></g><g
         id="g66"
         i:knockout="Off"><path
           style="clip-rule:evenodd;fill:#ffffff;fill-rule:evenodd"
           id="path64"
           d="m 109.965,444.072 c 31.407,-8.984 64.035,-14.634 96.487,-18.867 61.657,-8.042 129.616,-9.074 187.796,14.522 6.244,2.528 20.901,7.437 26.407,4.191 6.736,-3.976 6.396,-9.071 6.169,-12.388 -1.431,-38.853 -5.631,-122.284 -5.631,-122.284 0,0 -2.9,-63.199 2.017,-98.804 6.476,-4.29 13.94,-12.213 15.819,-24.771 0.11,-20.291 2.009,-28.714 12.989,-44.916 3.854,-5.688 13.487,-16.717 8.02,-23.186 -5.674,-6.726 -9.197,4.886 -12.023,8.587 -2.474,3.226 -17.329,22.227 -20.995,18.121 -3.779,-4.224 20.493,-48.896 14.438,-57.3 -6.38,-8.861 -14.438,16.224 -15.376,18.246 -4.735,9.861 -8.797,19.925 -12.403,30.129 0.024,0.655 -2.798,1.611 -3.568,0.772 -0.05,-8.318 -0.784,-15.668 -0.349,-27.106 0.518,-13.507 0.719,-37.242 -7.842,-36.446 -9.09,0.841 0.527,59.124 -9.012,63.058 -7.18,2.962 -11.774,-20.318 -13.096,-25.151 -2.205,-8.042 -3.128,-26.645 -10.223,-27.75 -10.275,-1.6 -5.912,14.283 -4.989,19.314 1.491,8.112 15.234,64.003 5.894,68.11 -6.41,2.82 -16.757,-11.991 -23.945,-15.932 -4.698,-2.595 -21.447,-6.646 -20.938,0.76 0.253,3.624 8.955,6.369 11.976,8.771 13.78,10.961 29.495,33.696 42.151,42.672 3.807,3.61 8.26,5.774 12.52,7.083 1.157,3.325 2.09,7.029 2.768,11.204 3.632,41.18 5.598,95.591 6.648,138.271 -12.672,-27.533 -30.098,-53.51 -47.707,-77.512 -9.028,-12.302 -18.492,-24.45 -28.415,-36.253 3.315,-5.333 6.507,-15.12 1.566,-26.35 -8.939,-14.438 -11.34,-21.165 -10.752,-37.004 0.2,-5.563 2.136,-17.203 -4.617,-19.631 -7.013,-2.517 -4.356,7.112 -4.717,10.86 -0.32,3.269 -2.407,22.632 -6.839,21.173 -4.557,-1.508 -7.194,-42.812 -15.23,-46.375 -8.469,-3.755 -3.021,17.236 -2.794,19.037 1.015,8.871 2.615,17.618 4.598,26.29 0.306,0.453 -1.274,2.251 -2.187,1.964 -3.736,-5.881 -7.523,-10.811 -12.297,-19.092 -5.643,-9.792 -18.939,-27.771 -22.348,-21.329 -2.723,5.208 24.301,39.64 22.222,46.876 -1.685,5.886 -17.386,-9.745 -20.469,-12.647 -5.149,-4.827 -14.074,-17.658 -19.589,-15.638 -8.009,2.939 2.146,12.478 5.049,15.674 4.658,5.173 39.258,39.373 34.451,45.991 -3.301,4.535 -17.207,-1.876 -24.066,-1.821 -4.487,0.029 -18.167,3.781 -14.514,8.837 1.793,2.467 9.182,0.97 12.396,1.474 14.646,2.324 35.9,12.217 48.866,13.573 5.126,1.256 10.004,0.695 14.033,-0.42 7.59,9.266 14.933,18.704 22.046,28.227 19.904,26.63 39.447,56.098 52.324,87.424 -23.391,-21.775 -51.482,-39.694 -78.779,-55.49 -13.605,-7.873 -27.598,-15.365 -41.85,-22.365 -0.446,-4.93 -3.49,-14.058 -13.475,-19.21 -13.152,-4.656 -18.219,-7.736 -26.412,-18.191 -2.875,-3.664 -8.006,-12.118 -13.358,-10.202 -5.566,1.986 1.228,6.792 3.028,9.382 1.581,2.25 10.767,15.733 7.325,17.074 -3.534,1.381 -27.419,-23.729 -34.149,-21.886 -7.105,1.944 7.478,12.595 8.598,13.631 5.391,5.169 11.064,9.947 16.935,14.487 0.429,0.124 0.447,2.095 -0.253,2.38 -5.424,-1.854 -10.342,-3.062 -17.67,-5.916 -8.666,-3.378 -22.387,-7.744 -20.95,-1.857 1.187,4.729 31.995,12.583 34.658,18.293 2.158,4.641 -15.692,2.683 -19.107,2.41 -5.681,-0.454 -17.966,-4.093 -20.179,0.049 -3.211,5.989 8.023,6.879 11.492,7.447 5.576,0.913 44.773,5.053 45.463,11.759 0.472,4.604 -11.329,7.645 -15.414,11.204 -2.675,2.321 -8.855,11.749 -3.933,13.111 2.403,0.659 6.03,-4.096 8.229,-5.418 10.037,-6.039 28.119,-10.618 36.627,-16.414 2.32,-1.128 4.211,-2.659 5.751,-4.325 10.013,5.148 19.923,10.466 29.641,15.981 29.134,16.534 59.161,35.894 83.474,59.647 -35.57,-16.828 -75.028,-26.578 -113.729,-33.131 -35.726,-6.04 -72.59,-9.952 -109.184,-9.533 -2.641,0.025 -15.041,-0.287 -15.391,4.57 -0.324,4.746 12.068,5.262 14.695,5.23 30.279,-0.342 60.566,2.811 90.244,7.268 36.44,5.473 74.206,14.47 108.05,30.291 -34.356,-9.176 -70.597,-12.679 -105.837,-13.719 -36.276,-1.063 -73.346,0.135 -109.489,5.582 -2.615,0.396 -14.927,1.782 -14.521,6.639 0.406,4.742 12.742,3.548 15.34,3.156 29.906,-4.502 60.361,-5.559 90.4,-5.223 38.178,0.422 78.346,4.369 115.3,16.277 -36.626,-3 -74.001,-0.963 -109.999,3.111 -39.306,4.456 -79.049,11.254 -117.001,22.112 -2.738,0.784 -15.748,4.027 -14.405,8.758 1.316,4.633 14.397,1.569 17.116,0.793 z"
           i:knockout="Off" /></g></g></g><metadata
     id="metadata77"><rdf:RDF><cc:Work
         rdf:about=""><dc:title></dc:title></cc:Work></rdf:RDF></metadata></svg>